<?xml version="1.0" standalone="no"?>
<!DOCTYPE svg PUBLIC "-//W3C//DTD SVG 20010904//EN"
 "http://www.w3.org/TR/2001/REC-SVG-20010904/DTD/svg10.dtd">
<svg version="1.0" xmlns="http://www.w3.org/2000/svg"
 width="736.000000pt" height="736.000000pt" viewBox="0 0 736.000000 736.000000"
 preserveAspectRatio="xMidYMid meet">

<g transform="translate(0.000000,736.000000) scale(0.100000,-0.100000)"
fill="#000000" stroke="none">
<path d="M0 3680 l0 -3680 3680 0 3680 0 0 3680 0 3680 -3680 0 -3680 0 0
-3680z m3740 1985 c32 -17 60 -61 60 -96 0 -21 -47 -74 -84 -94 -18 -10 -17
-16 18 -145 59 -221 143 -366 222 -386 65 -16 182 53 299 178 89 94 136 170
120 192 -44 59 -47 66 -40 96 15 69 119 90 173 36 51 -51 18 -130 -60 -142
-43 -7 -47 -16 -73 -153 -22 -121 -20 -178 10 -238 28 -55 69 -83 122 -83 49
0 148 57 228 132 71 66 74 71 60 91 -21 31 -19 54 10 82 46 47 125 20 125 -42
0 -38 -27 -63 -69 -63 -33 0 -42 -7 -100 -78 -85 -101 -183 -252 -227 -347
l-35 -75 -817 0 -818 0 -39 82 c-51 104 -140 242 -221 338 -56 68 -66 76 -99
77 -45 1 -75 27 -75 64 0 60 86 93 130 49 22 -22 27 -69 9 -87 -8 -8 -6 -18 5
-36 25 -37 144 -134 200 -162 86 -43 168 -28 203 38 25 46 25 224 -1 328 l-18
77 -40 6 c-96 15 -120 118 -38 161 46 24 87 19 121 -14 37 -38 39 -82 4 -117
-30 -30 -31 -27 70 -168 83 -116 110 -144 173 -186 85 -56 158 -52 228 12 55
50 93 128 139 283 46 154 54 205 31 205 -10 0 -31 13 -47 29 -85 86 30 213
141 156z m-138 -1600 l2 -310 -172 -3 -172 -2 0 145 0 146 -167 -3 -168 -3 -3
-454 -2 -455 28 -35 c16 -20 93 -119 171 -220 l141 -183 -2 268 -3 269 -120 1
-120 1 -3 172 -2 171 295 -2 295 -3 3 -938 c1 -515 -1 -936 -4 -935 -4 2 -148
185 -320 408 -172 223 -400 517 -506 654 l-193 249 0 689 0 688 510 -2 510 -3
2 -310z m1178 -373 l0 -688 -506 -654 c-278 -360 -508 -657 -510 -659 -2 -2
-4 602 -4 1342 l0 1347 510 0 510 0 0 -688z"/>
<path d="M4100 3768 l0 -273 170 170 171 170 -3 100 -3 100 -167 3 -168 2 0
-272z"/>
<path d="M4262 3167 l-163 -163 3 -154 3 -155 167 215 168 215 0 103 c0 56 -3
102 -8 102 -4 0 -80 -73 -170 -163z"/>
</g>
</svg>
